<svg xmlns="http://www.w3.org/2000/svg" viewBox="0 0 3082 1207"><defs/><defs><clipPath id="cp1" clipPathUnits="userSpaceOnUse"><path d="M-542-1480h4167v4167H-542z"/></clipPath></defs><g id="Page 1" clip-path="url(#cp1)"><path id="Path 2" d="M1103.75 814.69c27.4-64.86 42.54-136.19 42.54-211.02 0-299.72-242.91-542.63-542.63-542.63-188.18 0-353.92 95.72-451.25 241.16h535.86l-34.77 60.3-278.28 482.33h50.98L704.48 362.5l34.77-60.3h190.19l-34.77 60.3-278.28 482.33h540.02a590.83 590.83 0 01-30.48 60.29c-104.24 180.21-299.05 301.46-522.27 301.46C270.65 1206.58.74 936.69.74 603.67c0-73.43 13.13-143.77 37.11-208.82h64.78c-26.8 64.25-41.6 134.79-41.6 208.82 0 299.73 242.91 542.62 542.63 542.62 188.18 0 353.92-95.73 451.26-241.17h-542.9l34.77-60.29L825.07 362.5h-50.98L495.8 844.83l-34.76 60.29H270.85l34.76-60.29L583.9 362.5H50.91a593.062 593.062 0 0130.48-60.3C185.63 122 380.44.74 603.66.74c333.02 0 602.93 269.91 602.93 602.93 0 74.23-13.4 145.37-37.99 211.02h-64.85zm642.19-90.09v48.42h-213.36l33.73-48.42h179.63zm0-290.29v14.64l-149.17 214.11-42.85 61.54-33.74 48.42h-47.04V758.6l192.03-275.86h-185.18v-48.43h265.95zm266.06 0v338.71h-48.42V434.31H2012zm595.79 0v338.71h-48.19V524.78l-126.35 248.24h-14.42L2303.1 545.7v-99.21l122.82 242.91 129.2-255.09h52.67zm-315.33 0v338.71h-48.42V434.31h48.42zm518.56 0h270.92v48.42h-111.25v290.29h-48.42V482.73h-111.25v-48.42z"/></g></svg>