<svg xmlns="http://www.w3.org/2000/svg" viewBox="0 0 1729 1729"><defs/><defs><clipPath id="cp1" clipPathUnits="userSpaceOnUse"><path d="M-1045-968h4167v4167h-4167z"/></clipPath></defs><g id="Page 1" clip-path="url(#cp1)"><path id="Path 1" d="M1579 1241.83c60.02-112.67 93.79-241.21 93.79-377.52 0-445.86-362.6-808.48-808.48-808.48-267.64 0-505.27 130.74-652.51 331.62h787.68l-31.61 59.61-442.48 834.5h64.13L1032 447.06l31.6-59.61h199.04l-31.58 59.61-442.5 834.5h832.38c-11.13 20.46-23.25 40.33-36.17 59.6-154.79 233.28-419.83 387.46-720.46 387.46C387.65 1728.62 0 1340.98 0 864.31 0 729 31.19 600.84 87.03 486.8h62.58c-60 112.65-93.78 241.21-93.78 377.51 0 445.88 362.62 808.48 808.48 808.48 267.65 0 505.27-130.75 652.5-331.63h-827.4l31.6-59.6 442.49-834.5h-64.13l-442.49 834.5-31.6 59.6H426.24l31.59-59.6 442.48-834.5H107.69c11.13-20.47 23.25-40.34 36.16-59.61C298.63 154.19 563.69 0 864.31 0c476.67 0 864.31 387.65 864.31 864.31 0 135.31-31.18 263.46-86.83 377.52H1579z"/></g></svg>