<svg xmlns="http://www.w3.org/2000/svg" width="273.6" height="273.6" viewBox="0 0 273.6 273.6"><path d="M231.529 25.613h16.458v16.458h6.1V19.512h-22.558zM25.613 42.071V25.613h16.45v-6.1H19.504v22.559zM42.063 247.987h-16.45v-16.45h-6.109v22.559h22.559zM247.987 231.537v16.45h-16.458v6.109h22.559v-22.559zM273.6 17.696h-4.616V4.616h-13.08V0h17.7zM241.015 4.616h-29.776V0h29.776zm-44.664 0h-29.777V0h29.776zm-44.664 0h-29.775V0h29.776zm-44.664 0H77.248V0h29.776zm-44.664 0H32.584V0H62.36zM4.616 17.696H0v-17.7h17.7v4.616H4.62zM4.616 241.015H0v-29.771h4.616zm0-44.664H0v-29.775h4.616zm0-44.664H0v-29.775h4.616zm0-44.664H0V77.244h4.616zm0-44.664H0V32.584h4.616zM17.696 273.6h-17.7v-17.7h4.616v13.08h13.08zM241.015 273.6h-29.776v-4.616h29.776zm-44.664 0h-29.777v-4.616h29.776zm-44.664 0h-29.775v-4.616h29.776zm-44.664 0H77.248v-4.616h29.776zm-44.664 0H32.584v-4.616H62.36zM273.6 273.6h-17.7v-4.616h13.08v-13.08h4.616zM273.6 241.015h-4.616v-29.771h4.616zm0-44.664h-4.616v-29.775h4.616zm0-44.664h-4.616v-29.775h4.616zm0-44.664h-4.616V77.244h4.616zm0-44.664h-4.616V32.584h4.616z"/></svg>