<?xml version="1.0" standalone="no"?>
<!DOCTYPE svg PUBLIC "-//W3C//DTD SVG 20010904//EN"
 "http://www.w3.org/TR/2001/REC-SVG-20010904/DTD/svg10.dtd">
<svg version="1.0" xmlns="http://www.w3.org/2000/svg"
 width="3870.000000pt" height="3870.000000pt" viewBox="0 0 3870.000000 3870.000000"
 preserveAspectRatio="xMidYMid meet">
<metadata>
Created by potrace 1.11, written by Peter Selinger 2001-2013
</metadata>
<g transform="translate(0.000000,3870.000000) scale(0.100000,-0.100000)"
fill="#000000" stroke="none">
<path d="M18788 37085 c-1 -2 -93 -6 -203 -10 -209 -7 -244 -9 -440 -19 -142
-8 -253 -15 -315 -21 -25 -2 -91 -7 -148 -10 -56 -3 -110 -8 -120 -9 -9 -2
-55 -7 -102 -11 -79 -6 -198 -17 -315 -30 -27 -3 -75 -7 -105 -10 -66 -7 -375
-44 -410 -50 -14 -2 -52 -7 -85 -10 -33 -4 -67 -8 -75 -10 -8 -2 -37 -7 -65
-11 -27 -3 -57 -7 -65 -9 -8 -1 -37 -6 -65 -9 -27 -4 -63 -9 -80 -11 -47 -6
-103 -15 -190 -30 -44 -8 -96 -17 -115 -19 -19 -3 -60 -9 -90 -15 -30 -6 -71
-13 -90 -16 -111 -18 -398 -72 -540 -102 -91 -19 -176 -37 -190 -39 -23 -4
-63 -13 -100 -21 -8 -2 -24 -5 -35 -7 -11 -2 -90 -20 -175 -40 -85 -20 -164
-38 -175 -40 -31 -6 -462 -115 -535 -136 -36 -10 -110 -30 -165 -45 -173 -47
-474 -135 -640 -187 -226 -71 -496 -158 -520 -168 -11 -4 -47 -17 -80 -28
-172 -59 -463 -165 -487 -178 -14 -8 -33 -14 -42 -14 -9 0 -24 -4 -34 -9 -9
-5 -134 -55 -277 -111 -143 -57 -279 -111 -302 -121 -23 -11 -44 -19 -47 -19
-3 0 -35 -13 -71 -30 -36 -16 -67 -30 -70 -30 -3 0 -234 -100 -311 -135 -16
-8 -59 -27 -95 -43 -298 -135 -426 -197 -764 -367 -176 -89 -345 -176 -375
-192 -30 -17 -91 -49 -135 -73 -44 -23 -134 -73 -200 -110 -66 -37 -140 -78
-165 -92 -559 -312 -1328 -810 -1900 -1231 -137 -101 -414 -310 -420 -317 -3
-3 -52 -42 -110 -87 -144 -112 -514 -414 -530 -433 -3 -3 -36 -32 -75 -64 -70
-58 -120 -102 -329 -290 -325 -291 -617 -573 -956 -922 -118 -122 -178 -186
-401 -429 -25 -27 -64 -70 -85 -95 -21 -24 -48 -54 -59 -66 -34 -36 -78 -86
-138 -159 -32 -38 -64 -74 -70 -80 -7 -5 -38 -41 -69 -80 -31 -38 -65 -79 -75
-90 -22 -25 -109 -132 -227 -280 -108 -135 -98 -123 -176 -225 -36 -47 -68
-87 -71 -90 -6 -6 -231 -307 -264 -355 -12 -16 -63 -88 -114 -158 -119 -166
-377 -548 -476 -707 -43 -69 -88 -141 -100 -160 -60 -93 -116 -191 -111 -198
2 -4 3992 -7 8865 -7 4874 0 8861 -2 8861 -4 0 -6 -256 -453 -345 -601 -18
-30 -44 -75 -57 -100 -14 -25 -47 -83 -75 -130 -27 -47 -87 -150 -133 -230
-46 -80 -122 -210 -168 -290 -47 -80 -94 -161 -105 -180 -11 -19 -103 -179
-205 -355 -102 -176 -193 -335 -204 -353 -10 -18 -58 -102 -107 -185 -48 -84
-105 -183 -127 -220 -63 -109 -109 -189 -134 -232 -13 -22 -30 -51 -37 -65 -8
-14 -25 -43 -39 -65 -13 -22 -27 -47 -31 -55 -4 -8 -17 -32 -30 -53 -13 -21
-32 -53 -42 -70 -36 -64 -240 -417 -347 -600 -60 -103 -118 -205 -130 -225
-11 -20 -45 -80 -76 -132 -77 -133 -237 -409 -258 -445 -49 -86 -259 -449
-335 -580 -94 -163 -231 -399 -262 -455 -16 -28 -170 -293 -447 -771 -12 -20
-58 -101 -104 -180 -46 -79 -87 -151 -92 -159 -13 -21 -103 -176 -130 -225
-13 -22 -31 -53 -41 -70 -11 -16 -22 -37 -26 -45 -3 -8 -21 -39 -40 -68 -18
-29 -33 -55 -33 -57 0 -3 -17 -34 -38 -68 -21 -35 -42 -70 -46 -77 -4 -8 -12
-24 -19 -35 -7 -11 -31 -54 -55 -95 -23 -41 -47 -82 -52 -90 -14 -21 -206
-354 -240 -415 -15 -27 -139 -241 -274 -474 -135 -233 -246 -428 -246 -432 0
-5 -4 -9 -10 -9 -5 0 -10 -4 -10 -10 0 -5 -73 -135 -161 -287 -89 -153 -171
-294 -182 -313 -10 -19 -36 -64 -57 -100 -21 -36 -47 -81 -58 -100 -10 -19
-51 -89 -89 -155 -103 -176 -548 -945 -608 -1050 -29 -49 -112 -193 -185 -320
-73 -126 -141 -243 -150 -260 -10 -16 -66 -113 -125 -215 -59 -102 -117 -201
-127 -220 -56 -98 -75 -131 -115 -197 -24 -40 -43 -77 -43 -83 0 -5 -4 -10
-10 -10 -5 0 -10 -4 -10 -9 0 -6 -64 -119 -141 -253 -153 -262 -168 -288 -200
-345 -12 -21 -46 -80 -75 -130 -30 -51 -114 -195 -186 -320 -72 -126 -156
-271 -186 -323 -30 -52 -60 -105 -66 -117 -6 -13 -14 -23 -18 -23 -5 0 -8 -4
-8 -10 0 -5 -100 -182 -222 -392 -121 -211 -269 -466 -328 -568 -59 -102 -133
-230 -165 -285 -32 -55 -66 -113 -75 -130 -9 -16 -65 -113 -125 -215 -59 -102
-119 -205 -133 -230 -14 -25 -139 -241 -277 -480 -139 -239 -296 -511 -350
-605 -54 -93 -121 -210 -150 -260 -57 -96 -489 -843 -512 -885 -8 -14 -25 -43
-39 -65 -13 -22 -27 -47 -31 -55 -4 -8 -17 -33 -31 -54 -13 -22 -34 -58 -47
-80 -12 -23 -39 -70 -60 -106 -21 -36 -44 -76 -52 -90 -8 -14 -23 -38 -33 -55
-10 -16 -19 -34 -19 -40 -1 -7 747 -10 2224 -10 l2225 0 30 55 c17 30 40 71
52 90 11 19 71 123 133 230 62 107 210 364 330 570 120 206 229 396 244 422
14 25 55 97 91 159 36 61 72 123 80 138 8 14 40 69 70 121 30 52 60 103 65
113 6 9 51 88 101 175 50 86 100 173 110 192 11 19 22 37 25 40 4 3 16 23 28
45 12 22 29 54 39 70 10 17 46 80 81 140 35 61 79 137 98 170 20 33 46 79 59
102 14 24 88 152 165 285 78 134 151 261 164 283 12 22 38 67 57 100 19 33 67
116 107 185 39 69 75 132 81 140 7 12 121 208 225 388 6 9 31 53 56 97 26 44
56 96 66 115 11 19 152 262 313 540 161 278 304 525 318 550 21 39 142 247
272 470 75 128 478 826 494 855 9 17 26 46 37 65 23 38 132 225 221 380 30 52
99 172 153 265 54 94 106 183 114 198 9 16 21 36 26 45 6 10 41 71 79 137 38
66 89 153 113 192 24 40 43 75 43 78 0 3 12 24 27 48 15 23 32 51 38 62 21 37
287 499 320 555 18 30 102 174 186 320 84 146 172 298 196 337 23 40 43 75 43
78 0 3 8 18 19 33 17 24 200 341 233 402 7 14 20 36 29 50 48 75 209 360 209
369 0 6 4 11 8 11 4 0 18 19 30 43 12 23 38 69 57 102 20 33 54 92 76 130 22
39 44 77 49 85 16 28 77 133 281 485 111 193 210 364 220 380 11 17 22 36 26
44 3 8 35 64 71 125 36 61 75 129 87 151 13 22 46 81 75 130 29 50 61 105 72
123 10 18 59 104 109 190 50 86 127 220 172 297 44 77 99 172 122 210 23 39
45 77 48 85 4 8 15 29 26 45 17 28 226 388 446 770 51 88 165 286 255 440 89
154 171 296 182 315 11 19 27 49 37 66 56 93 358 617 384 664 17 30 34 57 39
58 4 2 8 8 8 13 0 5 106 192 236 416 250 431 257 444 311 538 19 33 38 67 43
75 11 16 166 284 197 340 11 19 46 80 78 135 32 55 132 228 222 385 91 157
174 301 185 320 12 19 46 78 76 130 30 52 67 116 81 141 14 25 79 137 144 250
l119 204 714 0 c393 0 714 -3 714 -8 0 -9 -142 -256 -171 -299 -11 -15 -19
-29 -19 -31 0 -3 -63 -114 -141 -247 -77 -134 -148 -257 -158 -274 -9 -17 -35
-62 -58 -101 -22 -38 -105 -180 -182 -315 -78 -135 -146 -252 -151 -260 -5 -8
-31 -53 -58 -100 -26 -47 -182 -317 -347 -600 -164 -283 -405 -701 -537 -928
-131 -226 -247 -427 -258 -445 -11 -17 -23 -39 -27 -47 -4 -8 -26 -46 -48 -85
-23 -38 -53 -90 -67 -115 -14 -25 -72 -126 -130 -225 -57 -99 -173 -299 -257
-445 -199 -345 -250 -432 -261 -450 -5 -8 -71 -123 -147 -254 -76 -131 -147
-255 -159 -275 -11 -20 -139 -241 -284 -491 -145 -250 -271 -468 -281 -485
-11 -16 -22 -37 -26 -45 -4 -8 -27 -49 -51 -90 -25 -41 -56 -95 -70 -120 -14
-25 -32 -57 -41 -72 -55 -94 -217 -374 -220 -383 -2 -5 -12 -21 -21 -35 -9
-14 -28 -45 -42 -70 -14 -25 -51 -90 -83 -145 -32 -55 -73 -125 -90 -155 -18
-30 -58 -100 -90 -155 -55 -95 -68 -117 -114 -199 -19 -33 -51 -87 -78 -131
-7 -11 -24 -42 -39 -70 -14 -27 -32 -57 -39 -65 -7 -8 -14 -20 -16 -25 -3 -9
-93 -166 -152 -266 -128 -218 -307 -533 -307 -540 0 -5 -4 -9 -10 -9 -5 0 -10
-4 -10 -9 0 -9 -172 -310 -201 -353 -11 -14 -19 -29 -19 -32 0 -3 -14 -29 -31
-58 -18 -29 -40 -66 -49 -83 -9 -16 -108 -187 -220 -380 -111 -192 -213 -370
-227 -393 -14 -24 -155 -270 -315 -545 -160 -276 -300 -518 -311 -537 -11 -19
-251 -435 -535 -925 -518 -896 -537 -928 -570 -988 -31 -53 -127 -218 -159
-273 -17 -27 -43 -72 -58 -100 -15 -27 -100 -175 -190 -329 -270 -466 -341
-589 -590 -1020 -51 -88 -125 -216 -165 -285 -40 -69 -81 -141 -92 -160 -32
-55 -112 -193 -125 -215 -7 -11 -15 -27 -19 -35 -4 -8 -25 -43 -46 -78 -21
-34 -38 -64 -38 -67 0 -3 -15 -28 -33 -57 -19 -29 -47 -78 -64 -108 -17 -30
-169 -293 -338 -585 -169 -291 -316 -546 -327 -565 -10 -19 -28 -50 -39 -69
-11 -19 -53 -91 -93 -160 -40 -69 -151 -261 -246 -426 -248 -430 -260 -449
-260 -455 0 -3 4165 -5 9255 -5 5090 1 9255 -1 9255 -3 0 -3 -150 -193 -160
-202 -3 -3 -37 -43 -75 -90 -38 -47 -72 -87 -75 -90 -3 -3 -48 -54 -100 -115
-52 -60 -109 -126 -126 -145 -17 -19 -78 -87 -135 -150 -339 -378 -886 -924
-1244 -1241 -27 -24 -52 -46 -55 -49 -5 -5 -86 -77 -241 -211 -92 -81 -376
-318 -429 -359 -25 -19 -47 -37 -50 -40 -28 -30 -567 -441 -731 -557 -45 -32
-105 -75 -133 -95 -28 -20 -103 -72 -166 -115 -63 -43 -117 -81 -120 -84 -8
-9 -452 -300 -552 -361 -23 -14 -101 -62 -173 -107 -126 -78 -406 -243 -454
-269 -13 -7 -49 -28 -80 -46 -300 -181 -1115 -593 -1581 -800 -58 -26 -118
-53 -135 -61 -74 -33 -153 -67 -330 -140 -104 -42 -199 -81 -210 -86 -114 -47
-179 -73 -360 -141 -115 -44 -241 -90 -280 -103 -38 -13 -115 -40 -170 -60
-127 -46 -577 -194 -715 -235 -58 -17 -132 -39 -165 -49 -33 -10 -85 -26 -115
-34 -30 -9 -120 -34 -199 -57 -258 -74 -777 -201 -1091 -269 -131 -28 -164
-35 -170 -36 -49 -10 -80 -16 -100 -20 -25 -5 -218 -43 -255 -51 -42 -8 -432
-75 -465 -80 -19 -2 -46 -7 -60 -9 -37 -7 -347 -53 -405 -60 -27 -4 -61 -8
-75 -10 -110 -16 -466 -59 -585 -71 -16 -1 -57 -5 -90 -8 -33 -4 -87 -9 -120
-12 -33 -3 -80 -7 -105 -9 -25 -3 -79 -7 -120 -10 -41 -3 -100 -7 -130 -10
-100 -8 -204 -15 -300 -20 -52 -3 -129 -7 -170 -10 -454 -27 -1528 -27 -1980
0 -30 1 -117 6 -193 10 -76 3 -145 8 -155 10 -9 1 -66 6 -127 10 -60 3 -126 8
-145 10 -19 2 -71 6 -115 9 -106 9 -130 11 -325 31 -48 5 -145 16 -235 26 -49
6 -110 12 -135 15 -25 2 -90 11 -145 19 -55 8 -122 17 -150 20 -55 6 -96 13
-135 20 -14 3 -45 7 -70 10 -25 3 -83 12 -130 20 -47 7 -102 16 -122 19 -56 9
-108 17 -132 22 -21 4 -53 9 -111 19 -16 3 -55 9 -85 15 -30 5 -68 12 -85 15
-16 2 -41 7 -55 10 -14 3 -41 8 -60 12 -19 4 -37 8 -40 8 -3 1 -25 5 -50 9
-56 10 -33 6 -295 60 -121 26 -256 55 -300 66 -66 16 -212 51 -275 65 -8 2
-35 8 -60 15 -25 6 -65 16 -90 22 -25 5 -85 21 -135 35 -49 14 -94 26 -100 27
-42 11 -79 20 -135 36 -36 10 -139 39 -230 65 -446 126 -963 297 -1445 478
-193 72 -439 168 -480 187 -11 5 -92 39 -180 75 -189 79 -442 190 -575 252
-52 24 -135 63 -185 86 -135 63 -584 287 -720 360 -66 35 -154 82 -195 104
-223 117 -583 326 -885 511 -342 209 -979 638 -1215 816 -19 15 -114 86 -211
159 -189 142 -317 241 -384 297 -23 19 -59 49 -80 65 -46 36 -210 171 -280
230 -251 213 -347 297 -503 440 -30 28 -64 58 -76 68 -118 103 -631 608 -826
813 -95 100 -279 298 -307 330 -23 27 -145 164 -158 178 -28 30 -203 235 -290
341 -55 66 -102 122 -105 125 -3 3 -32 39 -65 80 -32 41 -62 77 -65 80 -3 3
-17 21 -30 40 -13 19 -27 37 -30 40 -27 25 -398 520 -490 654 -25 36 -53 76
-64 89 -26 32 -391 584 -461 697 -32 52 -73 118 -90 145 -34 54 -144 239 -205
345 -62 108 -81 142 -123 215 -151 264 -441 837 -596 1179 -45 98 -81 180 -81
182 0 2 -11 27 -24 56 -61 135 -208 497 -276 678 -17 47 -36 96 -42 110 -39
94 -205 584 -277 815 -83 269 -212 739 -256 935 -2 8 -20 87 -40 175 -39 168
-90 405 -105 490 -12 67 -19 100 -30 160 -15 79 -74 436 -86 520 -7 47 -12 84
-19 123 -2 15 -6 47 -9 72 -3 25 -8 64 -11 88 -3 23 -7 61 -10 85 -3 23 -8 62
-10 87 -3 25 -7 56 -10 70 -2 14 -7 59 -10 100 -4 41 -8 86 -10 100 -2 14 -7
61 -10 105 -3 44 -8 96 -11 115 -4 37 -10 117 -20 270 -3 52 -7 118 -9 145
-27 386 -27 1325 0 1765 17 264 34 481 40 520 2 14 7 63 11 110 3 47 7 87 9
90 2 3 6 48 10 100 4 52 8 97 10 100 2 3 6 32 10 65 3 33 12 103 20 155 7 52
16 118 20 145 3 28 10 75 15 105 5 30 12 73 15 95 3 22 17 108 31 190 15 83
28 164 30 180 2 17 8 50 14 75 11 47 13 58 30 150 13 71 15 80 35 175 38 177
43 201 49 225 3 14 8 36 11 50 10 58 146 588 190 740 184 649 429 1338 680
1915 71 161 93 211 126 283 22 46 39 85 39 87 0 2 48 102 106 222 58 120 110
227 115 238 46 102 336 636 441 813 l20 32 -703 -2 -702 -3 -28 -50 c-36 -64
-315 -625 -364 -730 -129 -278 -249 -552 -345 -790 -29 -71 -56 -139 -61 -150
-5 -11 -18 -45 -29 -75 -11 -30 -25 -64 -30 -75 -35 -78 -194 -528 -283 -800
-91 -281 -143 -452 -213 -700 -46 -167 -169 -655 -199 -795 -2 -8 -11 -49 -20
-90 -22 -106 -55 -260 -60 -290 -3 -14 -7 -36 -10 -50 -15 -75 -27 -138 -31
-165 -3 -16 -9 -50 -14 -75 -10 -48 -48 -272 -56 -330 -2 -19 -9 -60 -14 -90
-5 -30 -12 -73 -15 -95 -3 -23 -7 -50 -9 -60 -2 -11 -7 -49 -12 -85 -4 -36 -8
-67 -9 -70 -3 -13 -21 -162 -31 -250 -3 -36 -8 -73 -10 -82 -3 -20 -13 -112
-28 -273 -4 -38 -9 -88 -11 -110 -2 -22 -7 -78 -10 -125 -3 -47 -8 -103 -10
-125 -2 -22 -7 -85 -10 -140 -3 -55 -8 -129 -10 -165 -27 -432 -27 -1323 0
-1810 6 -123 16 -277 20 -310 2 -19 6 -73 9 -120 4 -47 8 -103 11 -125 2 -22
7 -71 10 -110 3 -38 8 -83 10 -100 2 -16 7 -59 10 -95 3 -36 8 -74 10 -85 2
-11 7 -49 10 -85 3 -36 10 -94 15 -130 5 -36 12 -87 15 -115 7 -56 13 -98 20
-135 2 -14 7 -47 10 -75 3 -27 20 -131 36 -230 31 -186 46 -278 55 -330 3 -16
7 -37 9 -45 2 -8 7 -31 10 -50 5 -28 35 -178 69 -345 30 -144 51 -234 80 -358
20 -82 38 -158 41 -170 5 -25 84 -329 110 -422 9 -33 23 -85 31 -115 8 -30 19
-66 24 -80 6 -14 12 -34 14 -45 7 -33 64 -219 128 -420 293 -920 711 -1907
1171 -2765 94 -177 137 -255 222 -405 120 -212 365 -618 500 -825 190 -294
519 -772 602 -875 5 -5 46 -62 93 -125 46 -63 110 -149 142 -190 32 -41 67
-86 78 -100 34 -45 413 -515 419 -520 4 -3 44 -50 90 -105 47 -55 89 -105 95
-110 6 -6 40 -44 76 -85 35 -41 67 -77 70 -80 3 -3 39 -43 80 -90 41 -46 84
-94 95 -106 11 -11 72 -76 135 -144 272 -293 629 -650 905 -904 77 -71 167
-155 200 -185 33 -31 99 -90 145 -131 47 -41 87 -77 90 -80 7 -7 260 -223 335
-285 33 -27 69 -58 80 -67 136 -115 450 -363 635 -502 85 -64 168 -126 184
-139 96 -74 678 -481 810 -567 13 -8 34 -22 47 -31 51 -35 422 -271 492 -314
1072 -656 2106 -1168 3292 -1630 33 -13 98 -38 145 -55 47 -17 101 -37 120
-45 358 -137 1106 -381 1520 -495 381 -106 722 -193 995 -255 88 -19 169 -38
180 -41 11 -2 63 -14 115 -25 134 -29 129 -28 190 -40 66 -12 73 -14 225 -44
154 -30 272 -52 415 -76 63 -10 126 -21 140 -23 36 -7 278 -46 325 -52 22 -3
51 -7 65 -9 173 -26 243 -35 285 -40 28 -3 61 -8 75 -10 14 -2 57 -7 95 -10
39 -4 72 -8 75 -10 3 -2 37 -6 75 -10 39 -3 84 -8 100 -10 40 -5 107 -13 180
-20 33 -3 78 -8 100 -10 22 -3 66 -7 98 -10 32 -3 77 -7 100 -10 23 -2 78 -7
122 -10 44 -3 107 -7 140 -10 159 -13 190 -15 470 -30 374 -21 626 -28 1110
-28 368 0 708 6 960 18 28 1 115 6 195 9 80 4 168 9 195 12 28 2 91 6 140 9
50 3 119 8 155 11 137 11 157 13 230 19 41 4 86 8 100 10 14 2 63 6 110 10 47
4 96 8 110 10 14 2 54 7 90 10 36 3 76 8 90 10 14 2 52 6 85 10 33 3 71 8 85
10 14 2 50 7 80 10 30 3 64 7 75 9 11 2 45 7 76 10 31 4 65 8 75 10 21 4 82
12 159 21 28 3 61 8 75 10 14 3 39 7 55 9 17 3 73 12 125 20 52 8 115 18 140
22 25 3 54 8 65 11 11 2 32 6 47 8 14 2 91 15 170 29 78 14 157 28 173 31 17
3 39 7 51 10 12 3 39 7 60 10 21 4 47 8 56 11 10 3 30 7 45 10 16 3 71 14 123
24 52 11 106 22 120 24 14 3 68 14 120 26 52 11 117 25 144 30 27 6 68 15 90
21 23 6 52 13 66 16 40 7 574 139 695 172 350 95 494 136 740 213 72 22 144
44 160 48 17 5 131 42 255 84 124 42 232 79 240 81 8 2 67 23 130 45 63 23
126 46 140 50 59 18 374 139 617 236 144 57 266 104 272 104 6 0 11 5 11 10 0
6 6 10 13 10 25 0 535 224 867 381 148 70 739 367 835 419 33 18 87 47 120 65
121 66 164 90 373 209 246 140 365 210 472 276 8 5 89 55 180 111 229 141 640
411 855 562 115 80 250 177 260 185 6 4 26 19 45 32 19 13 44 32 54 42 11 10
23 18 27 18 4 0 14 6 21 12 7 7 93 73 190 146 225 169 783 613 818 652 3 3 34
30 70 60 36 30 67 57 70 60 3 3 21 18 40 34 19 16 71 61 114 100 44 39 107 95
140 125 247 220 426 391 726 691 151 152 331 336 400 410 215 231 240 258 325
355 39 44 73 82 76 85 8 8 244 284 325 380 533 639 1033 1332 1450 2010 l102
165 -9314 3 c-5123 1 -9314 4 -9314 7 0 4 198 348 495 860 51 88 102 176 112
195 11 19 53 91 93 160 61 104 275 473 354 612 12 20 36 62 55 95 19 32 42 73
53 91 10 18 59 104 109 190 133 229 161 278 216 372 28 47 111 191 185 320
164 285 198 343 222 383 21 37 714 1234 744 1287 11 19 60 105 110 190 195
338 316 547 340 590 13 25 31 52 38 61 8 8 14 18 14 21 0 6 213 379 285 498
18 30 42 72 54 93 12 21 86 149 164 285 79 136 155 267 169 292 14 25 58 101
98 170 40 69 121 208 180 310 59 102 141 244 183 317 90 156 112 193 146 253
13 25 27 47 30 50 3 3 14 21 24 40 10 19 23 44 30 55 7 11 32 54 55 95 24 41
51 89 61 106 30 50 242 415 269 463 14 25 38 68 55 95 31 54 201 346 234 406
11 19 61 105 110 190 151 260 205 354 223 385 17 31 151 262 188 325 12 19 40
69 64 110 23 41 47 83 53 92 5 9 31 54 58 100 26 46 59 103 73 128 263 451
354 612 354 619 0 5 4 11 8 13 4 2 19 23 33 48 44 78 69 122 144 250 40 69 82
141 92 160 11 19 68 118 128 220 59 102 116 201 127 220 11 19 36 62 55 95 19
33 38 67 43 75 5 8 46 80 92 159 46 80 85 149 87 155 2 6 7 13 11 16 4 3 20
30 37 60 29 54 65 116 91 155 6 11 15 27 19 35 7 14 338 587 382 660 11 19 24
42 28 50 4 8 26 47 48 85 23 39 53 90 67 115 14 25 49 86 78 135 29 50 85 146
125 215 40 69 123 213 185 320 62 107 124 215 138 240 13 25 28 50 32 55 6 8
152 261 221 381 9 18 80 139 156 270 77 132 142 246 146 254 4 8 15 29 26 45
10 17 53 90 95 164 43 73 86 147 96 165 11 17 25 42 33 56 25 46 498 864 540
935 23 38 49 83 58 100 9 16 63 111 121 210 57 99 140 241 183 315 43 74 118
205 168 290 140 243 241 418 257 448 8 15 18 29 23 30 4 2 7 7 7 12 0 5 27 54
60 110 33 56 60 105 60 110 0 5 -1002 8 -2226 8 -2072 0 -2226 -1 -2231 -16
-3 -9 -12 -24 -18 -32 -7 -8 -24 -35 -37 -60 -14 -25 -51 -90 -83 -145 -32
-55 -123 -212 -203 -350 -79 -137 -156 -270 -170 -295 -14 -25 -52 -89 -84
-143 -32 -55 -58 -100 -58 -101 0 -3 -180 -315 -199 -346 -10 -16 -121 -207
-156 -270 -11 -19 -33 -58 -50 -85 -16 -28 -39 -66 -50 -86 -23 -41 -182 -316
-195 -339 -38 -62 -128 -218 -133 -230 -4 -8 -15 -28 -26 -45 -10 -16 -161
-277 -336 -580 -175 -302 -341 -590 -370 -640 -56 -96 -299 -516 -333 -575
-11 -19 -60 -105 -110 -190 -49 -85 -130 -225 -179 -310 -49 -85 -134 -231
-188 -325 -54 -93 -123 -213 -154 -265 -31 -52 -62 -106 -69 -120 -7 -14 -23
-42 -35 -62 -21 -36 -109 -187 -296 -510 -187 -324 -273 -473 -490 -848 -123
-212 -235 -405 -249 -429 -14 -25 -38 -68 -55 -95 -16 -28 -41 -71 -55 -96
-14 -25 -33 -58 -43 -75 -9 -16 -57 -100 -107 -185 -49 -85 -113 -195 -142
-245 -29 -49 -61 -106 -72 -125 -27 -48 -308 -534 -373 -645 -117 -201 -235
-404 -253 -436 -40 -71 -216 -375 -231 -399 -8 -14 -22 -38 -31 -55 -9 -16
-49 -86 -89 -155 -41 -69 -85 -146 -100 -171 -85 -149 -194 -336 -202 -349 -9
-14 -121 -209 -159 -275 -9 -17 -142 -246 -295 -510 -153 -264 -285 -493 -294
-510 -9 -16 -19 -31 -23 -33 -5 -2 -8 -8 -8 -12 0 -5 -64 -118 -141 -252 -78
-134 -151 -259 -162 -278 -10 -19 -41 -72 -68 -118 -27 -45 -49 -84 -49 -86 0
-2 -17 -33 -38 -67 -22 -35 -101 -172 -177 -304 -76 -132 -160 -276 -185 -320
-26 -44 -58 -100 -72 -125 -14 -25 -55 -96 -92 -158 -36 -62 -66 -115 -66
-118 0 -3 -8 -17 -19 -32 -34 -49 -211 -360 -211 -370 0 -6 -3 -12 -8 -14 -4
-1 -31 -43 -59 -93 -28 -49 -98 -172 -156 -272 -58 -100 -113 -197 -124 -215
-10 -18 -23 -40 -29 -48 -6 -8 -25 -40 -41 -70 -16 -30 -41 -73 -55 -95 -13
-22 -28 -47 -31 -55 -4 -8 -15 -29 -26 -45 -10 -17 -80 -138 -156 -270 -76
-132 -149 -257 -162 -277 -12 -21 -23 -39 -23 -41 0 -2 -37 -67 -82 -143 -45
-76 -97 -166 -115 -199 -19 -33 -43 -76 -54 -95 -51 -84 -214 -368 -228 -395
-9 -16 -19 -31 -23 -33 -5 -2 -8 -8 -8 -13 0 -5 -20 -42 -43 -82 -24 -39 -156
-265 -292 -502 -136 -236 -278 -482 -315 -545 -37 -63 -77 -131 -87 -150 -27
-46 -41 -71 -171 -295 -60 -104 -120 -208 -132 -230 -12 -22 -40 -70 -62 -107
l-40 -68 -714 0 c-393 0 -714 3 -714 8 1 4 12 25 25 47 14 22 28 47 32 55 4 8
26 47 48 85 23 39 53 90 67 115 14 25 58 101 98 170 40 69 105 181 144 248 39
68 79 138 89 154 16 27 142 245 187 323 9 17 61 107 115 200 54 94 138 238
185 320 48 83 108 185 134 228 25 43 46 80 46 83 0 2 18 33 40 69 22 36 40 68
40 71 0 3 14 26 30 51 17 24 30 46 30 48 0 2 19 36 43 77 24 40 55 93 69 118
24 43 159 279 178 310 12 21 459 792 489 844 13 22 35 61 49 86 14 25 33 57
43 72 11 14 19 28 19 31 0 3 19 38 43 79 24 40 55 93 69 118 14 25 65 113 113
195 48 83 97 168 110 190 12 22 37 65 55 95 18 30 42 71 53 90 45 80 258 450
372 645 67 116 134 230 147 255 29 52 373 647 387 670 5 8 51 87 102 175 51
88 131 228 180 310 48 83 96 166 107 185 10 19 52 91 92 160 40 68 81 138 90
155 9 17 50 87 90 155 40 69 83 143 95 165 32 58 387 671 462 797 34 59 63
110 63 113 0 3 11 22 24 43 13 20 35 56 48 78 20 36 268 465 322 557 10 18
129 223 264 457 135 234 291 504 347 600 56 96 113 195 127 220 14 25 63 110
110 190 46 80 100 172 119 205 19 33 39 68 44 77 28 48 171 296 181 313 31 57
367 636 417 720 17 28 39 66 50 85 20 36 120 210 427 740 97 168 194 336 216
373 21 38 47 83 58 100 28 49 282 488 304 527 22 40 144 250 339 585 38 66
157 271 263 455 107 184 275 475 373 645 99 171 189 326 200 345 10 19 52 91
92 160 40 69 82 141 93 160 70 124 356 617 362 625 4 6 19 31 33 56 13 25 108
189 209 365 102 175 279 481 393 679 114 198 238 412 276 476 38 64 71 123 74
132 6 14 -818 15 -8800 15 -4844 1 -8809 3 -8812 6 -3 3 14 29 38 58 46 55 58
69 74 90 52 66 326 387 429 503 256 286 413 453 716 755 298 299 367 365 565
544 61 55 115 105 120 110 9 10 105 94 189 166 16 14 34 30 40 35 234 211 839
693 1147 915 34 25 90 65 125 90 34 25 72 52 84 60 28 19 122 87 135 98 17 14
626 417 690 456 33 21 95 60 138 87 43 27 81 49 83 49 3 0 24 13 47 28 50 35
387 233 522 308 22 12 76 42 120 66 99 56 177 98 325 178 177 94 899 450 915
450 2 0 51 23 109 50 58 28 108 50 110 50 3 0 33 13 68 29 35 16 92 41 128 56
36 15 83 35 105 45 135 60 520 214 745 297 96 35 184 68 195 73 90 39 758 259
1075 354 112 33 434 124 479 136 20 4 108 27 196 50 146 38 454 113 515 126
14 3 115 25 225 49 171 37 472 98 555 111 14 2 35 6 47 9 30 7 212 38 408 70
103 17 121 20 190 30 23 3 50 7 61 9 12 2 45 7 75 11 30 3 65 8 79 10 66 9
109 15 150 20 25 4 56 8 70 10 14 2 48 7 75 10 28 3 66 7 85 10 19 2 60 7 90
10 30 3 71 8 90 10 19 2 60 7 90 10 30 3 71 7 90 9 19 3 67 7 105 10 39 4 90
8 115 11 41 4 94 8 225 19 28 3 97 8 155 11 58 4 121 8 140 10 19 2 100 7 180
10 80 3 166 8 191 10 259 22 1314 22 1759 0 96 -5 286 -15 355 -20 33 -2 107
-7 165 -10 58 -4 121 -8 140 -10 19 -2 76 -7 125 -10 50 -4 106 -8 125 -10 19
-3 105 -11 190 -20 198 -19 249 -25 280 -30 14 -2 52 -7 85 -10 52 -5 146 -16
253 -31 17 -2 47 -6 65 -8 112 -15 135 -18 157 -22 14 -2 57 -9 97 -15 39 -5
82 -12 94 -14 13 -3 41 -7 64 -10 22 -3 81 -13 130 -21 50 -8 104 -17 120 -20
17 -3 68 -12 115 -20 47 -9 96 -18 110 -20 14 -3 50 -9 80 -15 181 -34 440
-87 585 -119 77 -18 149 -34 160 -36 11 -2 29 -6 40 -8 11 -2 47 -11 80 -19
33 -9 71 -18 85 -21 89 -19 138 -32 340 -85 124 -33 261 -69 305 -81 113 -30
588 -171 597 -177 5 -2 16 -6 25 -8 23 -4 511 -164 538 -175 11 -5 110 -41
220 -80 184 -66 549 -204 620 -235 17 -7 77 -32 135 -55 116 -47 340 -142 465
-197 304 -135 411 -185 760 -359 368 -182 452 -226 710 -369 88 -49 178 -99
200 -110 22 -12 103 -59 180 -105 77 -45 154 -90 170 -100 64 -37 351 -213
459 -281 114 -73 466 -308 581 -388 72 -50 157 -109 190 -132 83 -58 422 -308
438 -322 6 -7 57 -46 112 -87 55 -41 107 -80 115 -87 133 -105 237 -189 246
-198 7 -5 29 -23 49 -40 60 -48 176 -144 230 -191 28 -23 61 -52 75 -64 82
-69 308 -267 320 -280 3 -3 28 -25 55 -49 143 -127 351 -327 625 -601 293
-292 362 -363 548 -568 89 -97 88 -96 172 -192 30 -35 62 -70 71 -79 8 -9 57
-65 109 -126 51 -60 102 -121 114 -135 141 -165 396 -487 537 -675 57 -77 109
-145 114 -151 6 -6 17 -22 25 -34 8 -12 36 -50 61 -84 25 -33 61 -83 79 -111
19 -27 38 -54 43 -60 28 -33 355 -522 464 -695 176 -278 401 -665 566 -970 95
-177 357 -693 357 -703 0 -3 26 -60 59 -128 52 -111 109 -236 147 -325 7 -16
29 -68 50 -115 291 -676 565 -1474 739 -2154 15 -55 30 -113 35 -130 5 -16 18
-68 29 -115 11 -47 29 -123 41 -170 11 -47 22 -94 24 -105 3 -11 12 -54 21
-95 9 -41 18 -84 21 -95 2 -11 6 -31 9 -45 8 -43 14 -73 30 -145 29 -138 74
-390 90 -500 4 -22 8 -47 10 -55 2 -8 7 -35 10 -60 3 -25 8 -56 10 -70 9 -56
34 -228 40 -279 4 -30 8 -61 10 -70 1 -9 6 -45 10 -81 3 -36 8 -76 10 -90 4
-26 11 -93 20 -182 3 -29 8 -73 10 -98 12 -116 25 -262 30 -335 3 -44 8 -109
10 -145 23 -312 28 -497 29 -995 1 -421 -4 -647 -19 -900 -1 -22 -5 -94 -9
-160 -4 -66 -9 -131 -11 -145 -2 -14 -7 -68 -10 -120 -3 -52 -8 -108 -10 -125
-4 -29 -9 -75 -21 -205 -3 -36 -7 -76 -10 -90 -2 -14 -6 -50 -9 -80 -3 -30
-10 -86 -15 -125 -5 -38 -12 -92 -16 -120 -3 -27 -7 -61 -10 -75 -2 -14 -7
-45 -10 -70 -3 -25 -7 -52 -9 -60 -2 -8 -7 -42 -11 -75 -3 -33 -8 -62 -9 -65
-2 -3 -6 -26 -10 -50 -39 -278 -156 -858 -240 -1192 -20 -79 -38 -150 -40
-158 -22 -99 -137 -510 -185 -665 -17 -55 -33 -107 -35 -115 -24 -101 -314
-921 -380 -1075 -7 -16 -43 -104 -80 -195 -65 -160 -81 -197 -131 -308 -13
-29 -24 -55 -24 -57 0 -3 -20 -48 -45 -101 -25 -52 -45 -97 -45 -98 0 -16
-286 -595 -400 -811 -71 -135 -241 -440 -277 -498 -13 -20 -20 -38 -16 -38 5
-1 320 -2 701 -3 550 -1 696 2 704 12 10 12 357 698 358 707 0 3 16 40 36 82
84 182 264 589 279 633 6 17 20 50 36 85 9 22 34 83 54 135 20 52 45 114 56
137 10 24 19 46 19 50 0 4 22 66 50 137 150 398 302 856 422 1276 85 301 182
679 233 920 20 91 40 181 45 200 5 19 11 49 14 65 13 79 18 103 27 145 6 25
17 81 25 125 21 114 43 236 48 265 3 14 15 86 26 160 12 74 23 146 25 160 21
131 59 411 70 511 1 14 5 50 8 80 4 30 9 81 13 114 3 33 7 67 9 75 2 8 7 53
10 100 4 47 8 101 10 120 2 19 6 73 10 120 4 47 8 101 10 120 2 19 7 82 10
140 4 58 8 130 10 160 14 217 20 523 19 945 0 532 -9 788 -40 1193 -3 34 -7
86 -9 115 -6 90 -15 191 -20 222 -2 17 -7 64 -10 105 -3 41 -8 86 -10 100 -2
14 -6 50 -10 80 -3 30 -8 71 -10 90 -3 19 -7 53 -9 75 -30 248 -73 539 -111
750 -9 50 -18 104 -21 120 -2 17 -13 75 -24 130 -10 55 -21 114 -24 132 -3 17
-22 107 -42 200 -19 92 -37 179 -40 193 -3 14 -10 43 -16 65 -5 22 -12 49 -14
60 -10 60 -128 532 -153 613 -5 18 -10 34 -11 37 0 3 -2 10 -5 17 -4 16 -65
237 -70 258 -2 8 -27 89 -55 180 -29 91 -54 174 -57 185 -41 144 -250 735
-360 1015 -36 91 -73 185 -83 210 -23 58 -124 298 -144 342 -8 18 -53 119 -99
223 -133 298 -360 762 -466 955 -17 30 -37 69 -44 85 -8 17 -34 67 -59 110
-25 44 -60 107 -78 140 -53 95 -69 124 -133 235 -87 152 -261 441 -324 538
-29 45 -53 85 -53 88 0 3 -4 10 -10 17 -5 7 -90 134 -189 282 -99 149 -198
297 -222 330 -23 33 -62 89 -87 125 -129 186 -424 576 -635 840 -99 124 -183
227 -186 230 -4 3 -49 57 -102 120 -53 63 -106 126 -118 140 -12 14 -46 52
-74 85 -102 117 -149 170 -166 185 -9 9 -43 47 -76 85 -33 38 -69 78 -80 90
-11 11 -81 86 -155 165 -170 181 -585 597 -755 755 -70 66 -142 134 -159 150
-17 17 -92 84 -166 150 -74 66 -137 122 -140 125 -3 3 -39 35 -80 70 -41 36
-77 67 -80 70 -7 8 -120 104 -149 126 -13 11 -31 26 -40 35 -9 9 -54 47 -101
85 -47 38 -87 71 -90 74 -8 9 -304 244 -421 335 -57 44 -106 82 -109 85 -7 9
-517 381 -575 420 -27 19 -52 36 -55 39 -23 26 -830 556 -936 615 -16 9 -69
41 -119 72 -78 49 -322 194 -410 244 -308 175 -308 174 -645 355 -117 63 -705
355 -850 423 -259 121 -668 299 -915 399 -60 24 -123 50 -140 57 -16 7 -55 22
-85 34 -167 63 -247 94 -265 102 -11 5 -78 30 -150 56 -71 25 -173 62 -225 81
-114 42 -588 203 -612 208 -9 2 -81 24 -160 49 -150 47 -384 117 -478 142 -30
8 -80 22 -110 31 -30 9 -59 18 -65 19 -5 1 -44 11 -85 23 -66 19 -571 148
-610 156 -8 2 -37 9 -65 15 -27 6 -61 14 -75 16 -14 3 -43 10 -65 16 -42 11
-62 15 -110 24 -16 2 -46 9 -65 14 -19 5 -80 19 -135 30 -55 11 -145 30 -200
41 -55 11 -116 23 -135 25 -19 3 -51 9 -70 14 -35 9 -398 74 -475 85 -22 4
-78 13 -125 21 -47 8 -114 19 -150 24 -36 5 -114 16 -175 25 -60 9 -126 18
-145 21 -91 11 -197 25 -220 29 -14 2 -50 7 -80 10 -30 3 -89 10 -130 15 -89
11 -183 22 -225 25 -16 1 -55 5 -85 8 -69 8 -144 15 -240 23 -41 3 -91 7 -110
10 -37 4 -164 14 -240 19 -274 18 -349 22 -535 30 -77 4 -167 8 -200 11 -70 5
-1361 14 -1367 9z"/>
</g>
</svg>
